<?xml version="1.0" encoding="UTF-8"?>
<svg width="38" height="38" version="1.1" viewBox="0 0 37.999912 37.999912" xml:space="preserve" xmlns="http://www.w3.org/2000/svg" xmlns:cc="http://creativecommons.org/ns#" xmlns:dc="http://purl.org/dc/elements/1.1/" xmlns:rdf="http://www.w3.org/1999/02/22-rdf-syntax-ns#"><metadata><rdf:RDF><cc:Work rdf:about=""><dc:format>image/svg+xml</dc:format><dc:type rdf:resource="http://purl.org/dc/dcmitype/StillImage"/><dc:title/></cc:Work></rdf:RDF></metadata>
<g transform="translate(-5 -5)">
	<path d="m21.881 6.136-4.315-0.974c-3.52-0.795-7.017 1.414-7.812 4.934l-0.983 4.351c2.832-4.497 7.586-7.659 13.11-8.311z"/>
	<path d="m6.136 26.119-0.974 4.315c-0.795 3.52 1.414 7.017 4.934 7.812l4.351 0.983c-4.497-2.833-7.659-7.586-8.311-13.11z"/>
	<path d="m37.904 9.754-4.351-0.983c4.497 2.832 7.659 7.586 8.311 13.109l0.974-4.315c0.795-3.518-1.414-7.016-4.934-7.811z"/>
	<path d="m26.119 41.864 4.315 0.974c3.52 0.795 7.017-1.414 7.812-4.934l0.983-4.351c-2.832 4.497-7.586 7.659-13.11 8.311z"/>
</g>
<path d="m19 3c-8.837 0-16 7.163-16 16s7.163 16 16 16 16-7.163 16-16-7.163-16-16-16zm-4 5c2.209 0 4 1.791 4 4 0 2.209-1.791 4-4 4s-4-1.791-4-4c0-2.209 1.791-4 4-4zm-3 19c-2.209 0-4-1.791-4-4s1.791-4 4-4c2.209 0 4 1.791 4 4s-1.791 4-4 4zm5-8c0-1.105 0.895-2 2-2s2 0.895 2 2-0.895 2-2 2-2-0.895-2-2zm6 11c-2.209 0-4-1.791-4-4s1.791-4 4-4 4 1.791 4 4-1.791 4-4 4zm3-11c-2.209 0-4-1.791-4-4s1.791-4 4-4 4 1.791 4 4-1.791 4-4 4z"/>
</svg>
