<?xml version="1.0" encoding="UTF-8"?>
<svg width="195" height="210" fill="#000000" data-name="Layer 1" version="1.1" viewBox="0 0 65 70" xmlns="http://www.w3.org/2000/svg" xmlns:cc="http://creativecommons.org/ns#" xmlns:dc="http://purl.org/dc/elements/1.1/" xmlns:rdf="http://www.w3.org/1999/02/22-rdf-syntax-ns#">
<metadata>
<rdf:RDF>
<cc:Work rdf:about="">
<dc:format>image/svg+xml</dc:format>
<dc:type rdf:resource="http://purl.org/dc/dcmitype/StillImage"/>
<dc:title>Artboard 13</dc:title>
</cc:Work>
</rdf:RDF>
</metadata>
<title>Artboard 13</title>
<path d="m54 12.5h-43a11 11 0 0 0 -11 11v23a11 11 0 0 0 11 11h43a11 11 0 0 0 11 -11v-23a11 11 0 0 0 -11 -11zm-8.77 22.94-19.5 10a0.5 0.5 0 0 1 -0.73 -0.44v-20a0.5 0.5 0 0 1 0.73 -0.44l19.5 10a0.5 0.5 0 0 1 0 0.89z"/>
</svg>

