<?xml version="1.0" standalone="no"?>
<!DOCTYPE svg PUBLIC "-//W3C//DTD SVG 20010904//EN"
 "http://www.w3.org/TR/2001/REC-SVG-20010904/DTD/svg10.dtd">
<svg version="1.0" xmlns="http://www.w3.org/2000/svg"
 width="610.000000pt" height="610.000000pt" viewBox="0 0 610.000000 610.000000"
 preserveAspectRatio="xMidYMid meet">
<metadata>
Created by potrace 1.11, written by Peter Selinger 2001-2013
</metadata>
<g transform="translate(0.000000,610.000000) scale(0.100000,-0.100000)"
fill="#000000" stroke="none">
<path d="M1303 5058 c-64 -72 -122 -376 -132 -685 l-6 -203 -57 86 c-55 81
-58 89 -58 147 -1 185 -76 334 -202 396 -55 28 -70 31 -155 31 -106 0 -135
-10 -195 -68 l-38 -36 0 -136 0 -137 -57 20 c-46 15 -75 18 -141 14 -106 -6
-177 -39 -227 -104 -34 -44 -35 -49 -35 -131 l0 -85 107 -191 107 -191 206
-205 c150 -150 217 -226 250 -279 90 -147 152 -194 270 -206 36 -4 175 -27
309 -52 206 -38 259 -51 330 -83 169 -77 299 -148 424 -233 193 -132 276 -167
389 -167 32 0 228 -20 437 -45 390 -46 422 -52 859 -161 l192 -49 0 -34 c0
-18 5 -62 12 -97 11 -61 13 -65 77 -116 110 -89 519 -428 674 -560 55 -46 124
-101 154 -123 l54 -40 108 0 c102 0 110 2 152 29 46 30 945 932 966 970 15 25
17 105 4 139 -9 24 -125 128 -347 312 -60 50 -195 173 -301 275 -226 216 -262
240 -366 240 l-72 0 -87 87 -88 88 0 55 c0 69 -35 145 -117 255 -95 127 -193
214 -304 268 -184 90 -359 127 -639 134 l-195 5 -282 -56 -283 -57 -292 17
c-161 9 -294 18 -295 18 -1 1 -14 47 -29 101 l-26 99 31 116 c17 63 38 136 46
161 29 89 13 150 -63 255 -40 55 -84 74 -169 74 -60 0 -76 -4 -115 -30 -66
-44 -73 -55 -102 -166 -14 -56 -42 -155 -61 -220 -34 -117 -35 -122 -35 -304
l0 -185 -40 -23 c-47 -26 -41 -36 -65 113 -9 61 -33 162 -52 225 l-34 114 27
81 c32 94 44 270 24 343 -13 49 -63 109 -144 171 l-53 41 -115 0 c-106 0 -116
-2 -135 -22z"/>
</g>
</svg>
